<svg width="8" height="5" viewBox="0 0 8 5" fill="none" xmlns="http://www.w3.org/2000/svg">
<path d="M7.82031 0.570312C7.8724 0.622396 7.89844 0.682292 7.89844 0.75C7.89844 0.817708 7.8724 0.877604 7.82031 0.929688L4.17969 4.57031C4.1276 4.6224 4.06771 4.64844 4 4.64844C3.93229 4.64844 3.8724 4.6224 3.82031 4.57031L0.179688 0.929688C0.127604 0.877604 0.101562 0.817708 0.101562 0.75C0.101562 0.682292 0.127604 0.622396 0.179688 0.570312L0.570312 0.179688C0.622396 0.127604 0.682292 0.101562 0.75 0.101562C0.817708 0.101562 0.877604 0.127604 0.929688 0.179688L4 3.25L7.07031 0.179688C7.1224 0.127604 7.18229 0.101562 7.25 0.101562C7.31771 0.101562 7.3776 0.127604 7.42969 0.179688L7.82031 0.570312Z" fill="#87ADCF"/>
</svg>
