<svg width="33" height="33" viewBox="0 0 33 33" fill="none" xmlns="http://www.w3.org/2000/svg">
<rect x="0.426758" y="0.0302734" width="32" height="32" rx="16" fill="#656565"/>
<g clip-path="url(#clip0_31_214)">
<path d="M21.4163 6.16431V9.11073H19.6641C19.0242 9.11073 18.5926 9.24466 18.3694 9.51252C18.1462 9.78038 18.0346 10.1822 18.0346 10.7179V12.8273H21.3047L20.8694 16.1308H18.0346V24.6018H14.6194V16.1308H11.7734V12.8273H14.6194V10.3942C14.6194 9.01029 15.0063 7.937 15.7801 7.17435C16.5539 6.4117 17.5844 6.03038 18.8717 6.03038C19.9654 6.03038 20.8136 6.07502 21.4163 6.16431Z" fill="#222222"/>
</g>
<defs>
<clipPath id="clip0_31_214">
<rect width="11.44" height="20" fill="white" transform="matrix(1 0 0 -1 10.707 26.0303)"/>
</clipPath>
</defs>
</svg>
