<svg width="33" height="33" viewBox="0 0 33 33" fill="none" xmlns="http://www.w3.org/2000/svg">
<rect x="0.0664062" y="0.0302734" width="32" height="32" rx="16" fill="#656565"/>
<g clip-path="url(#clip0_31_217)">
<path d="M18.0866 18.0505C18.0866 18.0505 18.2261 17.911 18.5052 17.6319C18.7842 17.3529 18.9237 16.8191 18.9237 16.0304C18.9237 15.2417 18.6447 14.5683 18.0866 14.0103C17.5286 13.4523 16.8552 13.1732 16.0665 13.1732C15.2779 13.1732 14.6045 13.4523 14.0465 14.0103C13.4884 14.5683 13.2094 15.2417 13.2094 16.0304C13.2094 16.8191 13.4884 17.4924 14.0465 18.0505C14.6045 18.6085 15.2779 18.8875 16.0665 18.8875C16.8552 18.8875 17.5286 18.6085 18.0866 18.0505ZM19.1804 12.9165C19.1804 12.9165 19.3943 13.1305 19.8221 13.5583C20.25 13.9861 20.4639 14.8101 20.4639 16.0304C20.4639 17.2506 20.036 18.2886 19.1804 19.1442C18.3247 19.9999 17.2868 20.4277 16.0665 20.4277C14.8463 20.4277 13.8084 19.9999 12.9527 19.1442C12.0971 18.2886 11.6692 17.2506 11.6692 16.0304C11.6692 14.8101 12.0971 13.7722 12.9527 12.9165C13.8084 12.0609 14.8463 11.6331 16.0665 11.6331C17.2868 11.6331 18.3247 12.0609 19.1804 12.9165ZM21.3679 10.729C21.3679 10.729 21.4181 10.7793 21.5186 10.8797C21.619 10.9802 21.6692 11.1717 21.6692 11.4545C21.6692 11.7372 21.5688 11.979 21.3679 12.1799C21.167 12.3808 20.9252 12.4813 20.6424 12.4813C20.3597 12.4813 20.1179 12.3808 19.917 12.1799C19.7161 11.979 19.6157 11.7372 19.6157 11.4545C19.6157 11.1717 19.7161 10.9299 19.917 10.729C20.1179 10.5281 20.3597 10.4277 20.6424 10.4277C20.9252 10.4277 21.167 10.5281 21.3679 10.729ZM16.9203 8.99355C16.9203 8.99355 16.7911 8.99448 16.5325 8.99634C16.2739 8.9982 16.1186 8.99913 16.0665 8.99913C16.0145 8.99913 15.7299 8.99727 15.2128 8.99355C14.6956 8.98983 14.3032 8.98983 14.0353 8.99355C13.7674 8.99727 13.4084 9.00843 12.9583 9.02703C12.5081 9.04563 12.125 9.08283 11.8087 9.13864C11.4925 9.19444 11.2265 9.26327 11.0107 9.34511C10.6387 9.49392 10.3113 9.70969 10.0286 9.99243C9.74586 10.2752 9.53009 10.6026 9.38128 10.9746C9.29943 11.1903 9.23061 11.4563 9.1748 11.7726C9.119 12.0888 9.0818 12.472 9.0632 12.9221C9.0446 13.3723 9.03344 13.7313 9.02972 13.9991C9.026 14.267 9.026 14.6595 9.02972 15.1766C9.03344 15.6937 9.0353 15.9783 9.0353 16.0304C9.0353 16.0825 9.03344 16.3671 9.02972 16.8842C9.026 17.4013 9.026 17.7938 9.02972 18.0616C9.03344 18.3295 9.0446 18.6885 9.0632 19.1386C9.0818 19.5888 9.119 19.972 9.1748 20.2882C9.23061 20.6044 9.29943 20.8704 9.38128 21.0862C9.53009 21.4582 9.74586 21.7856 10.0286 22.0683C10.3113 22.3511 10.6387 22.5668 11.0107 22.7156C11.2265 22.7975 11.4925 22.8663 11.8087 22.9221C12.125 22.9779 12.5081 23.0151 12.9583 23.0337C13.4084 23.0523 13.7674 23.0635 14.0353 23.0672C14.3032 23.0709 14.6956 23.0709 15.2128 23.0672C15.7299 23.0635 16.0145 23.0616 16.0665 23.0616C16.1186 23.0616 16.4032 23.0635 16.9203 23.0672C17.4375 23.0709 17.8299 23.0709 18.0978 23.0672C18.3657 23.0635 18.7247 23.0523 19.1748 23.0337C19.625 23.0151 20.0081 22.9779 20.3244 22.9221C20.6406 22.8663 20.9066 22.7975 21.1223 22.7156C21.4944 22.5668 21.8218 22.3511 22.1045 22.0683C22.3872 21.7856 22.603 21.4582 22.7518 21.0862C22.8337 20.8704 22.9025 20.6044 22.9583 20.2882C23.0141 19.972 23.0513 19.5888 23.0699 19.1386C23.0885 18.6885 23.0997 18.3295 23.1034 18.0616C23.1071 17.7938 23.1071 17.4013 23.1034 16.8842C23.0997 16.3671 23.0978 16.0825 23.0978 16.0304C23.0978 15.9783 23.0997 15.6937 23.1034 15.1766C23.1071 14.6595 23.1071 14.267 23.1034 13.9991C23.0997 13.7313 23.0885 13.3723 23.0699 12.9221C23.0513 12.472 23.0141 12.0888 22.9583 11.7726C22.9025 11.4563 22.8337 11.1903 22.7518 10.9746C22.603 10.6026 22.3872 10.2752 22.1045 9.99243C21.8218 9.70969 21.4944 9.49392 21.1223 9.34511C20.9066 9.26327 20.6406 9.19444 20.3244 9.13864C20.0081 9.08283 19.625 9.04563 19.1748 9.02703C18.7247 9.00843 18.3657 8.99727 18.0978 8.99355C17.8299 8.98983 17.4375 8.98983 16.9203 8.99355ZM24.5822 12.4924C24.6194 13.1472 24.638 14.3265 24.638 16.0304C24.638 17.7342 24.6194 18.9136 24.5822 19.5683C24.5078 21.1159 24.0465 22.3139 23.1982 23.1621C22.35 24.0103 21.1521 24.4716 19.6045 24.546C18.9497 24.5832 17.7704 24.6018 16.0665 24.6018C14.3627 24.6018 13.1834 24.5832 12.5286 24.546C10.981 24.4716 9.78306 24.0103 8.93485 23.1621C8.08663 22.3139 7.62533 21.1159 7.55092 19.5683C7.51372 18.9136 7.49512 17.7342 7.49512 16.0304C7.49512 14.3265 7.51372 13.1472 7.55092 12.4924C7.62533 10.9448 8.08663 9.7469 8.93485 8.89868C9.78306 8.05047 10.981 7.58916 12.5286 7.51475C13.1834 7.47755 14.3627 7.45895 16.0665 7.45895C17.7704 7.45895 18.9497 7.47755 19.6045 7.51475C21.1521 7.58916 22.35 8.05047 23.1982 8.89868C24.0465 9.7469 24.5078 10.9448 24.5822 12.4924Z" fill="#222222"/>
</g>
<defs>
<clipPath id="clip0_31_217">
<rect width="17.16" height="20" fill="white" transform="matrix(1 0 0 -1 7.48633 26.0303)"/>
</clipPath>
</defs>
</svg>
