<svg width="118" height="90" viewBox="0 0 118 90" fill="none" xmlns="http://www.w3.org/2000/svg">
<g clip-path="url(#clip0_6_777)">
<mask id="mask0_6_777" style="mask-type:luminance" maskUnits="userSpaceOnUse" x="-1" y="8" width="119" height="83">
<path d="M88.4867 8.41815C73.8877 8.43837 61.4511 13.5037 61.4511 13.5037C60.099 14.0537 57.887 14.0537 56.5354 13.5037C56.5354 13.5037 44.0988 8.43837 29.5003 8.41815C14.6521 8.39692 2.44457 13.487 2.44457 13.487C1.09674 14.0497 -0.00585938 15.7868 -0.00585938 17.349V87.9974C-0.00585938 89.5596 1.10147 90.3908 2.45514 89.8448C2.45514 89.8448 15.4196 84.6182 29.5005 84.7456C43.2622 84.87 56.3987 87.092 56.3987 87.092C57.8261 87.3336 60.161 87.3336 61.5879 87.092C61.5879 87.092 74.7244 84.87 88.487 84.7456C102.567 84.6182 115.531 89.8448 115.531 89.8448C116.885 90.3908 117.993 89.5596 117.993 87.9974V17.349C117.993 15.7868 116.89 14.0497 115.542 13.487C115.542 13.487 103.335 8.39692 88.487 8.41815" fill="white"/>
</mask>
<g mask="url(#mask0_6_777)">
<path d="M88.4881 8.41822C73.8891 8.43844 61.4525 13.5037 61.4525 13.5037C60.1003 14.0538 57.8884 14.0538 56.5367 13.5037C56.5367 13.5037 44.1001 8.43844 29.5016 8.41822C14.6534 8.39698 2.44592 13.4871 2.44592 13.4871C1.09809 14.0498 -0.00451718 15.7869 -0.00451718 17.3491V87.9975C-0.00451718 89.5597 1.10281 90.3909 2.45648 89.8449C2.45648 89.8449 -25.0069 116.12 29.5019 84.7457C94.3125 134.572 22.4443 87.0795 88.4869 84.7457C102.566 84.6183 115.531 89.8449 115.531 89.8449C116.885 90.3909 117.993 89.5597 117.993 87.9975V17.3491C117.993 15.7869 116.89 14.0498 115.542 13.4871C115.542 13.4871 103.335 8.39698 88.4869 8.41822" fill="#1E76B2"/>
</g>
<mask id="mask1_6_777" style="mask-type:luminance" maskUnits="userSpaceOnUse" x="4" y="9" width="56" height="75">
<path d="M59.0135 83.3738C59.0135 83.3738 44.6375 78.0166 31.5145 77.9025C18.3921 77.788 4.01562 83.3738 4.01562 83.3738V49.0936V14.813C4.01562 14.813 17.6763 9.32171 31.5145 9.34072C45.3528 9.35972 59.0135 14.813 59.0135 14.813V49.0936V83.3738Z" fill="white"/>
</mask>
<g mask="url(#mask1_6_777)">
<path d="M59.0135 83.3738C59.0135 83.3738 44.6375 78.0166 31.5145 77.9025C18.3921 77.788 4.01562 83.3738 4.01562 83.3738V14.8125C4.01562 14.8125 17.6763 9.32123 31.5145 9.34023C45.3528 9.35924 59.0135 14.8125 59.0135 14.8125V83.3738Z" fill="#E6E6E6"/>
</g>
<mask id="mask2_6_777" style="mask-type:luminance" maskUnits="userSpaceOnUse" x="6" y="5" width="54" height="79">
<path d="M59.0181 83.3738C59.0181 83.3738 45.3897 73.8527 32.9297 73.7377C20.4707 73.6236 6.82031 79.2104 6.82031 79.2104V44.9293V10.6481C6.82031 10.6481 19.7909 5.15737 32.9297 5.17589C46.069 5.19489 59.0181 14.813 59.0181 14.813V49.0936V83.3738Z" fill="white"/>
</mask>
<g mask="url(#mask2_6_777)">
<path d="M59.0181 83.3738C59.0181 83.3738 45.3897 73.8527 32.9297 73.7377C20.4707 73.6236 6.82031 79.2104 6.82031 79.2104V10.6491C6.82031 10.6491 19.7909 5.15833 32.9297 5.17685C46.069 5.19585 59.0181 14.8139 59.0181 14.8139V83.3752" fill="#B3B3B3"/>
</g>
<mask id="mask3_6_777" style="mask-type:luminance" maskUnits="userSpaceOnUse" x="12" y="0" width="48" height="84">
<path d="M59.0116 83.3738C59.0116 83.3738 50.6641 68.6801 38.2046 68.5646C25.7451 68.4511 12.0957 74.0374 12.0957 74.0374V39.7562V5.47506C12.0957 5.47506 25.0662 -0.0151925 38.2046 0.00381174C51.3435 0.0223287 59.0116 14.813 59.0116 14.813V49.0936V83.3738Z" fill="white"/>
</mask>
<g mask="url(#mask3_6_777)">
<path d="M59.0116 83.3738C59.0116 83.3738 50.6641 68.6801 38.2046 68.5646C25.7451 68.4511 12.0957 74.0373 12.0957 74.0373V5.47603C12.0957 5.47603 25.0662 -0.0142273 38.2046 0.00477692C51.3435 0.0232938 59.0116 14.8139 59.0116 14.8139V83.3752" fill="white"/>
<path d="M59.0116 83.3738C59.0116 83.3738 50.6641 68.6801 38.2046 68.5646C25.7451 68.4511 12.0957 74.0373 12.0957 74.0373V5.47603C12.0957 5.47603 25.0662 -0.0142273 38.2046 0.00477692C51.3435 0.0232938 59.0116 14.8139 59.0116 14.8139V83.3752" stroke="black" stroke-width="0.719019"/>
</g>
<mask id="mask4_6_777" style="mask-type:luminance" maskUnits="userSpaceOnUse" x="58" y="9" width="56" height="75">
<path d="M58.9873 83.3738C58.9873 83.3738 73.3637 78.0166 86.4862 77.9025C99.6087 77.788 113.986 83.3738 113.986 83.3738V49.0936V14.813C113.986 14.813 100.325 9.32171 86.4862 9.34072C72.6479 9.35972 58.9873 14.813 58.9873 14.813V49.0936V83.3738Z" fill="white"/>
</mask>
<g mask="url(#mask4_6_777)">
<path d="M58.9873 83.3738C58.9873 83.3738 73.3637 78.0166 86.4862 77.9025C99.6087 77.788 113.986 83.3738 113.986 83.3738V14.8125C113.986 14.8125 100.325 9.32123 86.4862 9.34023C72.6479 9.35924 58.9873 14.8125 58.9873 14.8125V83.3738Z" fill="white"/>
</g>
<mask id="mask5_6_777" style="mask-type:luminance" maskUnits="userSpaceOnUse" x="58" y="5" width="54" height="79">
<path d="M58.9873 83.3738C58.9873 83.3738 72.6161 73.8527 85.0752 73.7377C97.5347 73.6236 111.185 79.2104 111.185 79.2104V44.9293V10.6481C111.185 10.6481 98.214 5.15737 85.0752 5.17589C71.9368 5.19489 58.9873 14.813 58.9873 14.813V49.0936V83.3738Z" fill="white"/>
</mask>
<g mask="url(#mask5_6_777)">
<path d="M58.9873 83.3738C58.9873 83.3738 72.6161 73.8527 85.0752 73.7377C97.5347 73.6236 111.185 79.2104 111.185 79.2104V10.6491C111.185 10.6491 98.214 5.15833 85.0752 5.17685C71.9368 5.19585 58.9873 14.8139 58.9873 14.8139V83.3752" fill="white"/>
<path d="M58.9873 83.3738C58.9873 83.3738 72.6161 73.8527 85.0752 73.7377C97.5347 73.6236 111.185 79.2104 111.185 79.2104V10.6491C111.185 10.6491 98.214 5.15833 85.0752 5.17685C71.9368 5.19585 58.9873 14.8139 58.9873 14.8139V83.3752" stroke="black" stroke-width="0.35951"/>
</g>
<path d="M58.9844 83.9615C58.9844 83.9615 66.3233 73.0369 78.7161 71.8998C91.1273 70.7615 105.174 75.0262 105.174 75.0262L105.901 41.3094L58.9858 50.6474V83.9619" fill="#B3B3B3"/>
<mask id="mask6_6_777" style="mask-type:luminance" maskUnits="userSpaceOnUse" x="58" y="0" width="48" height="84">
<path d="M58.9873 83.3738C58.9873 83.3738 67.3353 68.6801 79.7948 68.5646C92.2548 68.4511 105.904 74.0374 105.904 74.0374V39.7562V5.47506C105.904 5.47506 92.9336 -0.0151925 79.7948 0.00381174C66.6559 0.0223287 58.9873 14.813 58.9873 14.813V49.0936V83.3738Z" fill="white"/>
</mask>
<g mask="url(#mask6_6_777)">
<path d="M58.9873 83.3738C58.9873 83.3738 67.3353 68.6801 79.7948 68.5646C92.2548 68.4511 105.904 74.0373 105.904 74.0373V5.47603C105.904 5.47603 92.9336 -0.0142228 79.7948 0.00478137C66.6559 0.0232983 58.9873 14.8139 58.9873 14.8139V83.3752" fill="white"/>
<path d="M58.9873 83.3738C58.9873 83.3738 67.3353 68.6801 79.7948 68.5646C92.2548 68.4511 105.904 74.0373 105.904 74.0373V5.47603C105.904 5.47603 92.9336 -0.0142228 79.7948 0.00478137C66.6559 0.0232983 58.9873 14.8139 58.9873 14.8139V83.3752" stroke="black" stroke-width="0.719019"/>
</g>
</g>
<defs>
<clipPath id="clip0_6_777">
<rect width="118" height="90" fill="white"/>
</clipPath>
</defs>
</svg>
