<svg width="32" height="32" viewBox="0 0 32 32" fill="none" xmlns="http://www.w3.org/2000/svg">
<g clip-path="url(#clip0_1_81)">
<rect width="32" height="32" rx="4" fill="#FF7700"/>
<path fill-rule="evenodd" clip-rule="evenodd" d="M14.8297 10.7699C14.4625 11.1392 14.0259 11.4324 13.5451 11.6324C13.0642 11.8324 12.5485 11.9354 12.0277 11.9354C11.5069 11.9354 10.9912 11.8324 10.5103 11.6324C10.0295 11.4324 9.59289 11.1392 9.22571 10.7699C8.85635 10.4027 8.56324 9.96612 8.36323 9.48524C8.16321 9.00437 8.06024 8.4887 8.06024 7.96789C8.06024 7.44707 8.16321 6.9314 8.36323 6.45053C8.56324 5.96965 8.85635 5.53307 9.22571 5.16588C9.59282 4.79641 10.0294 4.50319 10.5103 4.3031C10.9912 4.10301 11.5069 4 12.0277 4C12.5486 4 13.0643 4.10301 13.5451 4.3031C14.026 4.50319 14.4626 4.79641 14.8297 5.16588C15.1991 5.53307 15.4922 5.96965 15.6922 6.45053C15.8922 6.9314 15.9952 7.44707 15.9952 7.96789C15.9952 8.4887 15.8922 9.00437 15.6922 9.48524C15.4922 9.96612 15.1991 10.4027 14.8297 10.7699ZM12.0277 6.15489C11.5337 6.15489 11.0857 6.35489 10.7567 6.68489C10.5889 6.85129 10.4557 7.04928 10.3648 7.26743C10.2739 7.48557 10.2271 7.71956 10.2271 7.95588C10.2271 8.19221 10.2739 8.4262 10.3648 8.64434C10.4557 8.86249 10.5889 9.06048 10.7567 9.22689C10.9231 9.39496 11.1211 9.52839 11.3393 9.61945C11.5576 9.71051 11.7917 9.75739 12.0282 9.75739C12.2647 9.75739 12.4988 9.71051 12.7171 9.61945C12.9353 9.52839 13.1334 9.39496 13.2997 9.22689C13.4678 9.06053 13.6012 8.8625 13.6923 8.64425C13.7833 8.426 13.8302 8.19187 13.8302 7.95539C13.8302 7.7189 13.7833 7.48477 13.6923 7.26652C13.6012 7.04827 13.4678 6.85024 13.2997 6.68389C12.9604 6.34904 12.5044 6.15901 12.0277 6.15388V6.15489ZM16.1957 11.9469L17.3617 13.5369C17.4207 13.6189 17.4087 13.7249 17.3257 13.7839C16.3487 14.5839 15.2067 15.1139 14.0177 15.3969L16.2667 19.7289C16.3257 19.8589 16.2427 19.9999 16.1017 19.9999H13.6997C13.6624 19.998 13.6264 19.986 13.5954 19.9653C13.5644 19.9445 13.5396 19.9157 13.5237 19.8819L12.0277 16.3029L10.5207 19.8699C10.5075 19.9056 10.4834 19.9362 10.4518 19.9573C10.4202 19.9785 10.3827 19.9892 10.3447 19.9879H7.94271C7.80171 19.9879 7.71871 19.8349 7.77771 19.7179L10.0267 15.3969C8.81679 15.1148 7.68607 14.5634 6.71871 13.7839C6.64771 13.7239 6.62371 13.6069 6.68271 13.5359L7.84871 11.9469C7.91871 11.8529 8.03671 11.8409 8.11871 11.9119C9.21471 12.8419 10.5687 13.4539 12.0167 13.4539C13.4647 13.4539 14.8067 12.8539 15.9137 11.9119C16.0077 11.8419 16.1367 11.8519 16.1957 11.9469Z" fill="white"/>
</g>
<defs>
<clipPath id="clip0_1_81">
<rect width="32" height="32" rx="4" fill="white"/>
</clipPath>
</defs>
</svg>
