<svg width="45" height="45" viewBox="0 0 45 45" fill="none" xmlns="http://www.w3.org/2000/svg">
<rect x="0.140625" y="0.5" width="44" height="44" rx="22" fill="#8EBAD8"/>
<g clip-path="url(#clip0_6_690)">
<path d="M31.9622 26.7991C31.9622 27.0502 31.9157 27.3781 31.8227 27.7827C31.7297 28.1872 31.632 28.5058 31.5297 28.7383C31.3344 29.2033 30.7671 29.6963 29.8277 30.2171C28.9535 30.6914 28.0885 30.9286 27.2328 30.9286C26.9817 30.9286 26.7353 30.9123 26.4934 30.8798C26.2516 30.8472 25.9842 30.7891 25.6913 30.7054C25.3983 30.6217 25.1797 30.5542 25.0356 30.5031C24.8914 30.4519 24.6333 30.3566 24.2613 30.2171C23.8893 30.0776 23.6614 29.9939 23.5777 29.966C22.6662 29.6405 21.8524 29.2545 21.1363 28.8081C19.9551 28.0733 18.7274 27.0688 17.4533 25.7947C16.1791 24.5205 15.1746 23.2928 14.4399 22.1116C13.9934 21.3955 13.6075 20.5817 13.2819 19.6702C13.254 19.5865 13.1703 19.3586 13.0308 18.9866C12.8913 18.6146 12.796 18.3565 12.7448 18.2124C12.6937 18.0682 12.6263 17.8496 12.5426 17.5567C12.4588 17.2637 12.4007 16.9963 12.3682 16.7545C12.3356 16.5127 12.3193 16.2662 12.3193 16.0151C12.3193 15.1594 12.5565 14.2945 13.0308 13.4202C13.5517 12.4809 14.0446 11.9135 14.5096 11.7182C14.7421 11.6159 15.0607 11.5182 15.4653 11.4252C15.8698 11.3322 16.1977 11.2857 16.4488 11.2857C16.579 11.2857 16.6767 11.2997 16.7418 11.3276C16.9092 11.3834 17.1556 11.7368 17.4812 12.3879C17.5835 12.5646 17.723 12.8157 17.8997 13.1412C18.0764 13.4667 18.2392 13.762 18.388 14.0271C18.5368 14.2921 18.6809 14.5409 18.8205 14.7735C18.8484 14.8107 18.9297 14.9269 19.0646 15.1222C19.1995 15.3175 19.2994 15.4826 19.3645 15.6175C19.4296 15.7523 19.4622 15.8849 19.4622 16.0151C19.4622 16.2011 19.3297 16.4336 19.0646 16.7126C18.7995 16.9916 18.5112 17.2474 18.1996 17.4799C17.8881 17.7124 17.5997 17.9589 17.3347 18.2193C17.0696 18.4797 16.9371 18.6937 16.9371 18.8611C16.9371 18.9448 16.9603 19.0494 17.0068 19.175C17.0533 19.3005 17.0929 19.3959 17.1254 19.461C17.158 19.5261 17.2231 19.6377 17.3207 19.7958C17.4184 19.9539 17.4719 20.0422 17.4812 20.0608C18.188 21.335 18.9972 22.4278 19.9086 23.3393C20.8201 24.2508 21.9129 25.0599 23.1871 25.7668C23.2057 25.7761 23.294 25.8295 23.4521 25.9272C23.6103 26.0249 23.7219 26.09 23.787 26.1225C23.8521 26.1551 23.9474 26.1946 24.073 26.2411C24.1985 26.2876 24.3032 26.3108 24.3869 26.3108C24.5543 26.3108 24.7682 26.1783 25.0286 25.9132C25.289 25.6482 25.5355 25.3599 25.768 25.0483C26.0005 24.7367 26.2563 24.4484 26.5353 24.1833C26.8143 23.9183 27.0468 23.7857 27.2328 23.7857C27.363 23.7857 27.4956 23.8183 27.6304 23.8834C27.7653 23.9485 27.9304 24.0485 28.1257 24.1833C28.321 24.3182 28.4373 24.3996 28.4745 24.4275C28.707 24.567 28.9558 24.7111 29.2208 24.86C29.4859 25.0088 29.7812 25.1715 30.1067 25.3482C30.4322 25.5249 30.6834 25.6645 30.8601 25.7668C31.5111 26.0923 31.8645 26.3387 31.9203 26.5062C31.9482 26.5713 31.9622 26.6689 31.9622 26.7991Z" fill="white"/>
</g>
<defs>
<clipPath id="clip0_6_690">
<rect width="19.66" height="25" fill="white" transform="matrix(1 0 0 -1 12.3105 34.5)"/>
</clipPath>
</defs>
</svg>
