<svg width="32" height="32" viewBox="0 0 32 32" fill="none" xmlns="http://www.w3.org/2000/svg">
<g clip-path="url(#clip0_1_104)">
<rect width="32" height="32" rx="4" fill="#00AFF0"/>
<path fill-rule="evenodd" clip-rule="evenodd" d="M19.537 13.698C19.652 13.178 19.713 12.638 19.713 12.084C19.713 7.92901 16.298 4.56001 12.083 4.56001C11.639 4.56001 11.203 4.59801 10.779 4.67001C10.0725 4.23074 9.25691 3.9986 8.425 4.00001C5.981 4.00001 4 5.95401 4 8.36401C4 9.16901 4.222 9.92401 4.608 10.571C4.5047 11.0687 4.45276 11.5757 4.453 12.084C4.453 16.24 7.869 19.484 12.083 19.484C12.56 19.484 13.027 19.44 13.48 19.358C14.103 19.688 14.815 20 15.572 20C18.016 20 19.997 18.047 19.997 15.636C19.9975 14.9629 19.8399 14.2991 19.537 13.698ZM15.563 15.155C15.269 15.573 14.838 15.902 14.27 16.139C13.703 16.377 13.031 16.495 12.254 16.495C11.321 16.495 10.552 16.333 9.946 16.009C9.52777 15.7853 9.16886 15.4651 8.899 15.075C8.631 14.685 8.496 14.307 8.496 13.938C8.496 13.725 8.576 13.543 8.738 13.391C8.82038 13.3142 8.91711 13.2545 9.02265 13.2152C9.12819 13.1759 9.24046 13.1578 9.353 13.162C9.53974 13.1564 9.72201 13.2198 9.865 13.34C10.005 13.459 10.125 13.634 10.223 13.867C10.343 14.145 10.473 14.377 10.613 14.562C10.752 14.747 10.949 14.902 11.202 15.022C11.456 15.142 11.789 15.202 12.202 15.202C12.768 15.202 13.229 15.082 13.584 14.838C13.938 14.595 14.116 14.291 14.116 13.928C14.1209 13.7973 14.0978 13.6671 14.0483 13.546C13.9988 13.425 13.924 13.3159 13.829 13.226C13.6166 13.034 13.3631 12.8931 13.088 12.814C12.6877 12.6938 12.2819 12.5927 11.872 12.511C11.194 12.365 10.625 12.193 10.169 11.998C9.711 11.802 9.347 11.535 9.079 11.198C8.81 10.858 8.676 10.439 8.676 9.93801C8.676 9.45801 8.818 9.03401 9.102 8.66301C9.385 8.29101 9.795 8.00501 10.332 7.80501C10.869 7.60501 11.502 7.50601 12.227 7.50601C12.807 7.50601 13.309 7.57201 13.732 7.70401C14.155 7.83701 14.506 8.01301 14.785 8.23201C15.065 8.45201 15.269 8.68201 15.397 8.92301C15.527 9.16301 15.591 9.40001 15.591 9.62801C15.591 9.83801 15.511 10.028 15.35 10.195C15.2729 10.2771 15.1793 10.342 15.0754 10.3854C14.9715 10.4288 14.8596 10.4498 14.747 10.447C14.527 10.447 14.361 10.397 14.247 10.296C14.133 10.195 14.01 10.03 13.877 9.80101C13.7297 9.50283 13.5188 9.24065 13.259 9.03301C13.018 8.84901 12.632 8.75701 12.099 8.75701C11.605 8.75701 11.206 8.85701 10.903 9.05701C10.6 9.25601 10.448 9.49701 10.448 9.77701C10.448 9.95001 10.501 10.101 10.603 10.227C10.706 10.355 10.848 10.462 11.029 10.553C11.209 10.644 11.392 10.715 11.576 10.767C11.761 10.819 12.066 10.893 12.492 10.992C12.9798 11.0953 13.4624 11.2221 13.938 11.372C14.37 11.51 14.738 11.679 15.041 11.875C15.343 12.073 15.581 12.325 15.75 12.627C15.92 12.929 16.005 13.3 16.005 13.738C16.005 14.263 15.857 14.736 15.563 15.155Z" fill="white"/>
</g>
<defs>
<clipPath id="clip0_1_104">
<rect width="32" height="32" rx="4" fill="white"/>
</clipPath>
</defs>
</svg>
