<svg width="32" height="32" viewBox="0 0 32 32" fill="none" xmlns="http://www.w3.org/2000/svg">
<g clip-path="url(#clip0_1_99)">
<rect width="32" height="32" rx="4" fill="#65BC54"/>
<path fill-rule="evenodd" clip-rule="evenodd" d="M20 11.794C20 16.098 16.483 19.588 12.145 19.588C10.8181 19.5898 9.51233 19.2562 8.349 18.618L4 20L5.418 15.818C4.67925 14.6059 4.28928 13.2135 4.291 11.794C4.29 7.489 7.807 4 12.145 4C16.483 4 20 7.49 20 11.794ZM12.145 5.241C8.504 5.241 5.542 8.181 5.542 11.794C5.54089 13.1761 5.98169 14.5223 6.8 15.636L5.975 18.069L8.512 17.263C9.59092 17.9719 10.854 18.3487 12.145 18.347C15.787 18.347 18.749 15.407 18.749 11.794C18.749 8.181 15.787 5.241 12.145 5.241ZM16.112 13.589C16.063 13.509 15.935 13.461 15.742 13.366C15.55 13.271 14.603 12.808 14.427 12.745C14.25 12.681 14.122 12.649 13.993 12.84C13.8008 13.0985 13.5973 13.3485 13.383 13.589C13.271 13.717 13.159 13.732 12.967 13.637C12.774 13.541 12.154 13.34 11.418 12.689C10.9978 12.3034 10.6372 11.8575 10.348 11.366C10.235 11.175 10.335 11.071 10.432 10.976C10.518 10.89 10.624 10.753 10.721 10.642C10.817 10.53 10.849 10.451 10.913 10.323C10.977 10.195 10.945 10.084 10.897 9.988C10.849 9.893 10.464 8.953 10.303 8.57C10.143 8.188 9.983 8.252 9.87 8.252C9.758 8.252 9.63 8.236 9.501 8.236C9.40367 8.23854 9.30791 8.26106 9.21966 8.30218C9.13141 8.34329 9.05255 8.40212 8.988 8.475C8.811 8.665 8.314 9.128 8.314 10.068C8.314 11.008 9.004 11.916 9.1 12.044C9.196 12.171 10.432 14.163 12.389 14.928C14.347 15.692 14.347 15.438 14.699 15.405C15.052 15.374 15.839 14.944 15.999 14.497C16.159 14.051 16.159 13.668 16.112 13.589Z" fill="white"/>
</g>
<defs>
<clipPath id="clip0_1_99">
<rect width="32" height="32" rx="4" fill="white"/>
</clipPath>
</defs>
</svg>
