<svg width="11" height="16" viewBox="0 0 11 16" fill="none" xmlns="http://www.w3.org/2000/svg">
<path d="M7.03418 7.277C7.03418 7.277 7.15974 7.15144 7.41085 6.90032C7.66197 6.6492 7.78753 6.16874 7.78753 5.45891C7.78753 4.74909 7.53641 4.14307 7.03418 3.64083C6.53195 3.1386 5.92592 2.88749 5.2161 2.88749C4.50628 2.88749 3.90025 3.1386 3.39802 3.64083C2.89579 4.14307 2.64467 4.74909 2.64467 5.45891C2.64467 6.16874 2.89579 6.77476 3.39802 7.277C3.90025 7.77923 4.50628 8.03034 5.2161 8.03034C5.92592 8.03034 6.53195 7.77923 7.03418 7.277ZM10.359 5.45891C10.359 6.18883 10.2485 6.78816 10.0275 7.25691L6.37123 15.0315C6.26409 15.2524 6.10505 15.4265 5.89411 15.5538C5.68318 15.681 5.45717 15.7446 5.2161 15.7446C4.97503 15.7446 4.74902 15.681 4.53809 15.5538C4.32715 15.4265 4.17146 15.2524 4.07101 15.0315L0.404715 7.25691C0.183733 6.78816 0.0732422 6.18883 0.0732422 5.45891C0.0732422 4.03927 0.575474 2.82722 1.57994 1.82275C2.5844 0.81829 3.79646 0.316058 5.2161 0.316058C6.63574 0.316058 7.8478 0.81829 8.85226 1.82275C9.85672 2.82722 10.359 4.03927 10.359 5.45891Z" fill="#5A5A5A"/>
</svg>
