<svg width="32" height="32" viewBox="0 0 32 32" fill="none" xmlns="http://www.w3.org/2000/svg">
<g clip-path="url(#clip0_1_86)">
<rect width="32" height="32" rx="4" fill="#C20724"/>
<path fill-rule="evenodd" clip-rule="evenodd" d="M6 9.742C6 11.322 6.599 12.728 7.884 13.252C8.094 13.339 8.284 13.255 8.344 13.022C8.387 12.862 8.488 12.454 8.533 12.284C8.593 12.054 8.57 11.974 8.4 11.772C8.03 11.336 7.792 10.771 7.792 9.97C7.792 7.648 9.532 5.568 12.322 5.568C14.793 5.568 16.151 7.076 16.151 9.09C16.151 11.74 14.977 13.977 13.234 13.977C12.271 13.977 11.551 13.182 11.782 12.207C12.058 11.042 12.594 9.786 12.594 8.945C12.594 8.193 12.189 7.565 11.354 7.565C10.369 7.565 9.579 8.582 9.579 9.945C9.579 10.812 9.872 11.399 9.872 11.399L8.69 16.406C8.338 17.893 8.637 19.715 8.662 19.898C8.677 20.008 8.817 20.034 8.882 19.952C8.972 19.833 10.144 18.388 10.542 16.944C10.655 16.535 11.189 14.418 11.189 14.418C11.509 15.028 12.443 15.563 13.437 15.563C16.394 15.563 18.401 12.87 18.401 9.265C18.4 6.539 16.089 4 12.576 4C8.204 4 6 7.13 6 9.742Z" fill="white"/>
</g>
<defs>
<clipPath id="clip0_1_86">
<rect width="32" height="32" rx="4" fill="white"/>
</clipPath>
</defs>
</svg>
