<svg width="15" height="16" viewBox="0 0 15 16" fill="none" xmlns="http://www.w3.org/2000/svg">
<path d="M9.17215 9.75446C9.17215 9.75446 9.36784 9.55878 9.75921 9.16741C10.1506 8.77604 10.3463 8.02976 10.3463 6.92857C10.3463 5.82738 9.95489 4.88542 9.17215 4.10268C8.38942 3.31994 7.44745 2.92857 6.34626 2.92857C5.24507 2.92857 4.30311 3.31994 3.52037 4.10268C2.73763 4.88542 2.34626 5.82738 2.34626 6.92857C2.34626 8.02976 2.73763 8.97173 3.52037 9.75446C4.30311 10.5372 5.24507 10.9286 6.34626 10.9286C7.44745 10.9286 8.38942 10.5372 9.17215 9.75446ZM14.9177 14.3571C14.9177 14.6667 14.8046 14.9345 14.5784 15.1607C14.3522 15.3869 14.0844 15.5 13.7748 15.5C13.4534 15.5 13.1855 15.3869 12.9713 15.1607L9.90876 12.1071C8.84329 12.8452 7.65579 13.2143 6.34626 13.2143C5.49507 13.2143 4.68108 13.0491 3.9043 12.7187C3.12751 12.3884 2.45787 11.942 1.89537 11.3795C1.33287 10.817 0.88644 10.1473 0.556083 9.37054C0.225725 8.59375 0.0605469 7.77976 0.0605469 6.92857C0.0605469 6.07738 0.225725 5.26339 0.556083 4.48661C0.88644 3.70982 1.33287 3.04018 1.89537 2.47768C2.45787 1.91518 3.12751 1.46875 3.9043 1.13839C4.68108 0.808035 5.49507 0.642856 6.34626 0.642856C7.19745 0.642856 8.01144 0.808035 8.78823 1.13839C9.56501 1.46875 10.2347 1.91518 10.7972 2.47768C11.3597 3.04018 11.8061 3.70982 12.1364 4.48661C12.4668 5.26339 12.632 6.07738 12.632 6.92857C12.632 8.23809 12.2629 9.42559 11.5248 10.4911L14.5873 13.5536C14.8076 13.7738 14.9177 14.0417 14.9177 14.3571Z" fill="#A3A3A3"/>
</svg>
