<svg width="32" height="32" viewBox="0 0 32 32" fill="none" xmlns="http://www.w3.org/2000/svg">
<g clip-path="url(#clip0_1_109)">
<rect width="32" height="32" rx="4" fill="#64A9DC"/>
<path fill-rule="evenodd" clip-rule="evenodd" d="M18.9199 6.08902L4.74694 11.555C3.77994 11.943 3.78494 12.483 4.57094 12.723L8.10494 13.827L9.45794 17.973C9.62194 18.427 9.54094 18.607 10.0179 18.607C10.3859 18.607 10.5479 18.439 10.7539 18.239C10.8839 18.112 11.6569 17.359 12.5209 16.52L16.1979 19.237C16.8739 19.61 17.3629 19.417 17.5309 18.609L19.9449 7.23502C20.1919 6.24502 19.5669 5.79502 18.9199 6.08902ZM8.65994 13.573L16.6269 8.54702C17.0249 8.30502 17.3899 8.43502 17.0899 8.70102L10.2679 14.856L10.0029 17.689L8.65994 13.573Z" fill="white"/>
</g>
<defs>
<clipPath id="clip0_1_109">
<rect width="32" height="32" rx="4" fill="white"/>
</clipPath>
</defs>
</svg>
