<svg width="32" height="32" viewBox="0 0 32 32" fill="none" xmlns="http://www.w3.org/2000/svg">
<g clip-path="url(#clip0_1_91)">
<rect width="32" height="32" rx="4" fill="#7B519D"/>
<path fill-rule="evenodd" clip-rule="evenodd" d="M18.4341 15.574C17.9501 15.183 17.4321 14.831 16.9231 14.472C15.9071 13.754 14.9781 13.699 14.2201 14.852C13.7941 15.5 13.1991 15.529 12.5761 15.244C10.8581 14.462 9.53208 13.255 8.75508 11.501C8.41108 10.724 8.41508 10.028 9.22008 9.47903C9.64508 9.18903 10.0741 8.84503 10.0401 8.21103C9.99508 7.38303 7.99708 4.61803 7.20808 4.32603C6.89042 4.20954 6.54174 4.20954 6.22408 4.32603C4.37308 4.95003 3.60608 6.48003 4.34008 8.29203C6.53008 13.697 10.3831 17.459 15.6891 19.755C15.9911 19.885 16.3271 19.938 16.4971 19.985C17.7051 19.997 19.1201 18.827 19.5291 17.667C19.9221 16.55 19.0921 16.107 18.4341 15.574ZM12.4851 4.88003C16.3641 5.48003 18.1531 7.33403 18.6471 11.26C18.6921 11.623 18.5571 12.169 19.0731 12.179C19.6111 12.189 19.4811 11.651 19.4861 11.289C19.5311 7.59003 16.3231 4.16203 12.5981 4.03603C12.3171 4.07603 11.7351 3.84103 11.6981 4.47403C11.6741 4.90103 12.1641 4.83103 12.4851 4.88003Z" fill="white"/>
<path fill-rule="evenodd" clip-rule="evenodd" d="M13.2441 5.95697C12.8711 5.91197 12.3791 5.73497 12.2911 6.25597C12.2011 6.80197 12.7491 6.74597 13.1021 6.82597C15.4971 7.36397 16.3321 8.23997 16.7261 10.628C16.7831 10.977 16.6691 11.518 17.2581 11.428C17.6941 11.362 17.5361 10.898 17.5731 10.626C17.5931 8.33297 15.6371 6.24597 13.2441 5.95697Z" fill="white"/>
<path fill-rule="evenodd" clip-rule="evenodd" d="M13.4638 7.83193C13.2148 7.83793 12.9708 7.86493 12.8788 8.13193C12.7418 8.53193 13.0308 8.62793 13.3248 8.67593C14.3078 8.83393 14.8248 9.41593 14.9228 10.4009C14.9498 10.6689 15.1178 10.8849 15.3748 10.8549C15.7308 10.8119 15.7638 10.4939 15.7528 10.1909C15.7698 9.08493 14.5258 7.80593 13.4638 7.83193Z" fill="white"/>
</g>
<defs>
<clipPath id="clip0_1_91">
<rect width="32" height="32" rx="4" fill="white"/>
</clipPath>
</defs>
</svg>
